<svg width="20" height="20" viewBox="0 0 20 20" fill="none" xmlns="http://www.w3.org/2000/svg">
<path fill-rule="evenodd" clip-rule="evenodd" d="M11.1539 9.9963C11.1539 10.6335 10.6373 11.1501 10.0001 11.1501C9.36282 11.1501 8.84623 10.6335 8.84623 9.9963C8.84623 9.35905 9.36282 8.84246 10.0001 8.84246C10.6373 8.84246 11.1539 9.35905 11.1539 9.9963ZM5.76933 8.84246C5.13208 8.84246 4.61549 9.35905 4.61549 9.9963C4.61549 10.6335 5.13208 11.1501 5.76933 11.1501C6.40658 11.1501 6.92317 10.6335 6.92317 9.9963C6.92317 9.35905 6.40658 8.84246 5.76933 8.84246ZM14.2308 8.84246C13.5936 8.84246 13.077 9.35905 13.077 9.9963C13.077 10.6335 13.5936 11.1501 14.2308 11.1501C14.8681 11.1501 15.3846 10.6335 15.3846 9.9963C15.3846 9.35905 14.8681 8.84246 14.2308 8.84246ZM20 9.9963C20.0008 13.5081 18.1593 16.7629 15.1488 18.5711C12.1382 20.3792 8.39986 20.4756 5.3001 18.8251L2.02609 19.9164C1.47322 20.1008 0.863635 19.9569 0.451533 19.5448C0.039431 19.1327 -0.104427 18.5231 0.0799479 17.9703L1.17129 14.6963C-0.782684 11.0226 -0.257558 6.5228 2.48983 3.39776C5.23722 0.272713 9.63266 -0.824462 13.5264 0.642849C17.4201 2.11016 19.9983 5.83528 20 9.9963ZM18.4615 9.9963C18.4605 6.43892 16.2346 3.26207 12.8913 2.04652C9.54809 0.830972 5.80156 1.83634 3.51602 4.56237C1.23048 7.28839 0.894058 11.1528 2.67416 14.2328C2.78443 14.4236 2.80754 14.6526 2.73762 14.8616L1.53859 18.4578L5.13472 17.2587C5.21305 17.232 5.29523 17.2184 5.37799 17.2184C5.51309 17.2186 5.64574 17.2544 5.7626 17.3222C8.3807 18.837 11.6083 18.839 14.2283 17.3276C16.8483 15.8161 18.4622 13.021 18.4615 9.9963Z" fill="#171712"/>
</svg>
