<svg width="24" height="16" viewBox="0 0 24 16" fill="none" xmlns="http://www.w3.org/2000/svg">
<path fill-rule="evenodd" clip-rule="evenodd" d="M10.9776 10.4875C13.0775 9.08945 14.0145 6.48133 13.2842 4.06659C12.5539 1.65184 10.3287 3.78434e-05 7.80591 3.78434e-05C5.28315 3.78434e-05 3.05792 1.65184 2.32764 4.06659C1.59735 6.48133 2.53428 9.08945 4.63424 10.4875C2.78417 11.1694 1.20416 12.4312 0.129984 14.0846C-0.0236608 14.3129 -0.0424309 14.6063 0.080863 14.8524C0.204157 15.0985 0.450408 15.2591 0.725305 15.2728C1.0002 15.2864 1.26114 15.1509 1.40819 14.9183C2.81595 12.7531 5.22331 11.4469 7.80591 11.4469C10.3885 11.4469 12.7959 12.7531 14.2036 14.9183C14.4365 15.2644 14.9042 15.3594 15.2537 15.1315C15.6031 14.9035 15.7047 14.4373 15.4818 14.0846C14.4077 12.4312 12.8277 11.1694 10.9776 10.4875ZM3.60881 5.72568C3.60881 3.40769 5.48792 1.52858 7.80591 1.52858C10.1239 1.52858 12.003 3.40769 12.003 5.72568C12.003 8.04367 10.1239 9.92278 7.80591 9.92278C5.48901 9.92015 3.61144 8.04259 3.60881 5.72568ZM23.6538 15.1405C23.3008 15.3707 22.8281 15.2712 22.5978 14.9183C21.1917 12.7517 18.7831 11.4455 16.2001 11.449C15.7787 11.449 15.437 11.1073 15.437 10.6859C15.437 10.2644 15.7787 9.92278 16.2001 9.92278C17.8905 9.92119 19.4149 8.90572 20.0677 7.3465C20.7204 5.78728 20.3741 3.98863 19.1891 2.78325C18.0041 1.57786 16.2116 1.201 14.6415 1.82715C14.3866 1.93731 14.092 1.90038 13.8723 1.73069C13.6525 1.56101 13.5423 1.28537 13.5844 1.01094C13.6265 0.736507 13.8143 0.506603 14.0749 0.410623C16.7962 -0.674704 19.8978 0.470407 21.2611 3.06378C22.6243 5.65715 21.8089 8.86125 19.3718 10.4875C21.2219 11.1694 22.8019 12.4312 23.876 14.0846C24.1062 14.4376 24.0067 14.9103 23.6538 15.1405Z" fill="#171712"/>
</svg>
